<svg width="87" height="86" viewBox="0 0 87 86" fill="none" xmlns="http://www.w3.org/2000/svg">
<g clip-path="url(#clip0_926_827)">
<mask id="mask0_926_827" style="mask-type:luminance" maskUnits="userSpaceOnUse" x="1" y="0" width="86" height="86">
<path d="M86.2716 0H1.10095V86H86.2716V0Z" fill="white"/>
</mask>
<g mask="url(#mask0_926_827)">
<mask id="mask1_926_827" style="mask-type:luminance" maskUnits="userSpaceOnUse" x="1" y="1" width="85" height="84">
<path d="M85.958 1.48242H1.09912V84.8878H85.958V1.48242Z" fill="white"/>
</mask>
<g mask="url(#mask1_926_827)">
<path d="M2.69838 14.1012C3.15892 14.7057 3.70505 15.2425 4.32019 15.6951C5.86641 16.8336 7.77851 17.3859 9.7056 17.2506C11.6327 17.1152 13.4455 16.3014 14.8114 14.9583C16.1772 13.6154 17.0044 11.8333 17.1412 9.93917C17.278 8.04508 16.7153 6.16598 15.5562 4.64678C15.0972 4.04257 14.5528 3.5058 13.9395 3.0528C12.3936 1.91028 10.48 1.35469 8.55058 1.48826C6.62117 1.62178 4.80568 2.43553 3.43799 3.77975C2.07032 5.12396 1.24241 6.90832 1.10652 8.80465C0.970628 10.701 1.5359 12.5818 2.69838 14.1012Z" fill="#FDAF0A"/>
<path d="M71.506 14.1017C71.9667 14.7054 72.5128 15.2417 73.1277 15.6941C74.6736 16.8293 76.5839 17.3791 78.5087 17.2428C80.4336 17.1066 82.2443 16.2934 83.6089 14.9523C84.9735 13.611 85.801 11.8315 85.9394 9.93972C86.0779 8.04786 85.5186 6.17025 84.3637 4.6507C83.9034 4.04655 83.3578 3.50983 82.7434 3.05667C81.3551 2.0372 79.6687 1.48633 77.9353 1.48633C76.2024 1.48633 74.516 2.0372 73.1277 3.05667C72.5128 3.50983 71.9667 4.0465 71.506 4.6507C70.4688 6.01523 69.908 7.67291 69.908 9.37619C69.908 11.0796 70.4688 12.7372 71.506 14.1017Z" fill="#FDAF0A"/>
<path d="M10.316 24.1105H10.2737C9.51354 24.002 8.74142 24.002 7.98122 24.1105C6.65266 24.2989 5.39371 24.8128 4.32037 25.605C3.70565 26.0581 3.15959 26.5948 2.69856 27.1989C1.89255 28.2539 1.36968 29.4913 1.17812 30.797C1.06774 31.5441 1.06774 32.3031 1.17812 33.0502C1.40447 34.5948 2.09186 36.0387 3.15333 37.1994C4.2148 38.36 5.60267 39.185 7.14135 39.5704C8.67998 39.9553 10.3003 39.8833 11.7973 39.3634C13.2944 38.843 14.6007 37.8983 15.5513 36.6484C16.1837 35.8191 16.6434 34.8755 16.9043 33.8715C17.1652 32.8675 17.2221 31.8227 17.0717 30.797V30.7571C16.8565 29.4186 16.964 28.0491 17.3856 26.7588C17.8073 25.4684 18.5313 24.2936 19.4994 23.3285L20.5958 22.2377L22.2177 20.6452L23.3191 19.5626C24.3005 18.611 25.4956 17.8995 26.8083 17.4851C28.1208 17.0707 29.514 16.9649 30.8757 17.1768H30.9162C31.6769 17.2853 32.4497 17.2853 33.2104 17.1768H33.2509C34.6113 16.9661 36.0033 17.072 37.3144 17.4861C38.6258 17.9001 39.8198 18.6109 40.8008 19.5609L41.9022 20.6436L43.5239 22.236L44.6254 23.3186C45.5928 24.284 46.3166 25.459 46.7381 26.7492C47.1597 28.0394 47.2677 29.4087 47.0531 30.7472C47.0523 30.7605 47.0523 30.7738 47.0531 30.787C46.9427 31.5342 46.9427 32.2931 47.0531 33.0402C47.3296 34.9176 48.2848 36.634 49.7439 37.8756C51.2031 39.1171 53.0681 39.8003 54.9981 39.8003C56.928 39.8003 58.7932 39.1171 60.2523 37.8756C61.7119 36.634 62.6672 34.9176 62.9436 33.0402C63.0517 32.2929 63.0517 31.5343 62.9436 30.787C62.7516 29.4814 62.2287 28.244 61.4229 27.1889C60.9621 26.5848 60.416 26.0482 59.8011 25.595C58.7286 24.8025 57.4701 24.2886 56.1419 24.1006C55.381 23.9921 54.6085 23.9921 53.8477 24.1006H53.8073C52.4457 24.3122 51.0527 24.2066 49.7402 23.7924C48.4277 23.3783 47.2326 22.6672 46.2507 21.7162L43.5307 19.0496L42.4292 17.9671C41.4616 17.0022 40.7379 15.8276 40.3162 14.5376C39.8945 13.2476 39.7868 11.8784 40.0017 10.54V10.4985C40.304 8.42712 39.7571 6.32253 38.4812 4.64727C38.0201 4.04311 37.4742 3.50639 36.8595 3.05328C35.7868 2.26109 34.5284 1.74715 33.2003 1.55891C32.4396 1.45041 31.6668 1.45041 30.9061 1.55891C29.5775 1.7472 28.3185 2.26109 27.2452 3.05328C26.6305 3.50639 26.0844 4.04311 25.6235 4.64727C24.8173 5.70224 24.2944 6.9396 24.103 8.24538C23.9926 8.99249 23.9926 9.75142 24.103 10.4985C24.1022 10.5124 24.1022 10.5262 24.103 10.54C24.3173 11.8784 24.2096 13.2475 23.7879 14.5374C23.3663 15.8272 22.6427 17.0019 21.6753 17.9671L17.8725 21.7262C16.8906 22.677 15.6954 23.3881 14.3829 23.8022C13.0705 24.2164 11.6775 24.322 10.316 24.1105Z" fill="#FDAF0A"/>
<path d="M48.5735 14.1016C49.034 14.7062 49.5802 15.2429 50.1952 15.6956C51.0393 16.3171 51.9998 16.7689 53.0213 17.0254C54.0434 17.2817 55.1064 17.3376 56.1501 17.19H56.1911C57.5526 16.9782 58.946 17.0839 60.2585 17.4984C61.5706 17.9128 62.7659 18.6245 63.7476 19.576L64.8489 20.6586L66.4707 22.2509L67.572 23.3335C68.5395 24.2989 69.2635 25.4739 69.6848 26.7641C70.1062 28.0543 70.2143 29.4236 69.9996 30.7621C69.9991 30.7754 69.9991 30.7887 69.9996 30.8019C69.8894 31.5491 69.8894 32.308 69.9996 33.0551C69.9986 33.069 69.9986 33.0828 69.9996 33.0967C70.2103 34.4319 70.1001 35.797 69.6778 37.0827C69.2559 38.3686 68.5335 39.5398 67.569 40.5021L63.744 44.2679C62.7624 45.2188 61.5671 45.9299 60.2545 46.3445C58.9425 46.7586 57.5491 46.8649 56.1875 46.6539H56.1471C55.3863 46.5456 54.6133 46.5456 53.8529 46.6539C52.5242 46.842 51.2652 47.356 50.1918 48.1485C49.5772 48.6013 49.0311 49.1381 48.5702 49.7424C47.7642 50.7971 47.2411 52.0345 47.0497 53.3404C46.9393 54.0882 46.9393 54.8475 47.0497 55.5953C47.326 57.4722 48.2814 59.1888 49.7405 60.4307C51.1996 61.6721 53.0648 62.3553 54.9947 62.3553C56.9246 62.3553 58.7899 61.6721 60.2489 60.4307C61.708 59.1888 62.6634 57.4722 62.9402 55.5953C63.0483 54.8475 63.0483 54.0882 62.9402 53.3404C62.9392 53.327 62.9392 53.3136 62.9402 53.3007C62.725 51.9625 62.8326 50.593 63.2545 49.303C63.6758 48.0129 64.3998 46.8381 65.3678 45.8733L66.4692 44.7908L68.0909 43.1969L69.1923 42.1144C70.1739 41.163 71.3687 40.4509 72.6813 40.0368C73.9938 39.6222 75.3872 39.5169 76.7488 39.7284H76.7892C78.8964 40.0274 81.0385 39.4911 82.7436 38.2383C84.4482 36.9852 85.5774 35.1179 85.8815 33.0468C85.9896 32.2995 85.9896 31.541 85.8815 30.7936C85.69 29.488 85.1671 28.2506 84.3613 27.1957C83.9001 26.5914 83.3539 26.0548 82.7396 25.6016C81.667 24.8091 80.4085 24.2952 79.0803 24.1072C78.3195 23.9987 77.5465 23.9987 76.7861 24.1072H76.7452C75.3832 24.3199 73.9898 24.2155 72.6762 23.8018C71.3627 23.3883 70.1663 22.6773 69.1837 21.7263L66.4676 19.0497L65.3658 17.967C64.3973 17.0026 63.6728 15.8281 63.2499 14.5381C62.8276 13.2482 62.7189 11.8787 62.9332 10.54C62.9321 10.5262 62.9321 10.5123 62.9332 10.4985C63.0413 9.75122 63.0413 8.99264 62.9332 8.24533C62.7417 6.9396 62.2188 5.70224 61.413 4.64722C60.9517 4.04306 60.4056 3.50639 59.7912 3.05323C58.7181 2.26084 57.4597 1.74686 56.132 1.55891C55.3711 1.45041 54.5981 1.45041 53.8378 1.55891C52.5091 1.74715 51.25 2.26109 50.1766 3.05323C49.562 3.50639 49.0159 4.04306 48.5549 4.64722C47.749 5.70219 47.2259 6.9396 47.0345 8.24533C46.9241 8.99249 46.9241 9.75137 47.0345 10.4985C47.2306 11.8077 47.76 13.0471 48.5735 14.1016Z" fill="#FDAF0A"/>
<path d="M84.3618 49.7302C83.9006 49.1259 83.3544 48.5896 82.7401 48.1362C81.6675 47.3437 80.4085 46.8298 79.0808 46.6421C78.3195 46.5344 77.546 46.5353 76.7846 46.6451C75.4564 46.8333 74.1974 47.3472 73.1238 48.1397C72.509 48.5926 71.9634 49.1293 71.5021 49.7336C70.6968 50.7888 70.1739 52.0262 69.9819 53.3317C69.8713 54.0795 69.8713 54.8387 69.9819 55.5865C69.9809 55.5999 69.9809 55.6128 69.9819 55.6262C70.1961 56.9644 70.0885 58.3339 69.6667 59.6235C69.2453 60.9135 68.5213 62.0883 67.5544 63.0531L63.743 66.8091C62.7609 67.76 61.566 68.4715 60.2535 68.8856C58.941 69.3003 57.5481 69.406 56.1865 69.1955H56.1456C55.3853 69.0867 54.6123 69.0867 53.8514 69.1955H53.811C52.4494 69.406 51.0563 69.3003 49.744 68.8856C48.4315 68.4715 47.2364 67.76 46.2545 66.8091L43.5311 64.1326L42.4297 63.0502C41.462 62.0849 40.7381 60.9105 40.3167 59.6205C39.895 58.3304 39.7872 56.9614 40.002 55.6232V55.583C40.3046 53.5114 39.7577 51.406 38.4817 49.7302C38.0206 49.1259 37.4746 48.5896 36.8598 48.1362C35.7871 47.3442 34.5286 46.8303 33.2007 46.6421C32.44 46.5334 31.6673 46.5334 30.9065 46.6421C29.5779 46.8303 28.3189 47.3442 27.2456 48.1362C26.631 48.5896 26.0848 49.1259 25.6237 49.7302C24.8177 50.7853 24.2949 52.0227 24.1034 53.3282C23.993 54.076 23.993 54.8352 24.1034 55.583C24.2538 56.6089 24.6084 57.595 25.1468 58.4859C25.6853 59.3767 26.397 60.1543 27.2413 60.7745C28.0857 61.3952 29.0462 61.8455 30.0677 62.1008C31.0894 62.3565 32.1522 62.4116 33.1957 62.2631H33.2362C34.5986 62.0501 35.9932 62.1544 37.3072 62.568C38.6212 62.9811 39.818 63.6927 40.8012 64.6441L41.9027 65.7266L43.5244 67.3205L44.6258 68.4035C45.5935 69.3683 46.317 70.5431 46.7387 71.8327C47.1604 73.1227 47.2681 74.4917 47.0535 75.8304C47.0528 75.8433 47.0528 75.8567 47.0535 75.8701C46.9431 76.6179 46.9431 77.3772 47.0535 78.125C47.3012 79.8108 48.0972 81.3719 49.3224 82.5766C50.5477 83.7807 52.1367 84.5628 53.8514 84.8061C54.6123 84.9123 55.3847 84.9123 56.1456 84.8061C57.8603 84.5623 59.4487 83.7797 60.6738 82.5756C61.899 81.3714 62.6952 79.8103 62.9438 78.125C63.0519 77.3772 63.0519 76.6179 62.9438 75.8701C62.9428 75.8567 62.9428 75.8433 62.9438 75.8304C62.727 74.4912 62.8331 73.1212 63.2535 71.8302C63.6738 70.5387 64.3968 69.3628 65.3648 68.3965L66.4661 67.314L68.0879 65.7201L69.1827 64.6441C70.1643 63.6912 71.3606 62.9782 72.6742 62.5625C73.9883 62.1474 75.3832 62.0412 76.7457 62.2532H76.7866C78.8934 62.5516 81.0345 62.0153 82.7396 60.763C84.4442 59.5102 85.5738 57.6437 85.879 55.5731C85.9871 54.8253 85.9871 54.0661 85.879 53.3182C85.6865 52.0163 85.1651 50.7829 84.3618 49.7302Z" fill="#FDAF0A"/>
<path d="M15.5569 72.2722C14.9257 71.4425 14.1342 70.7428 13.2278 70.214C12.3213 69.6847 11.3177 69.3366 10.2742 69.1886C9.51405 69.0804 8.74193 69.0804 7.98174 69.1886C6.65343 69.3778 5.39463 69.8917 4.32087 70.6832C3.70615 71.1361 3.16009 71.6729 2.69906 72.2772C1.66179 73.6417 1.10132 75.2992 1.10132 77.0028C1.10132 78.706 1.66179 80.3635 2.69906 81.728C3.16009 82.3323 3.70615 82.8691 4.32087 83.322C5.39463 84.1135 6.65343 84.6274 7.98174 84.8166C8.74193 84.9248 9.51405 84.9248 10.2742 84.8166C11.652 84.6204 12.9543 84.0757 14.0533 83.2361C15.1522 82.3964 16.0102 81.2901 16.543 80.0258C17.0757 78.7621 17.2649 77.3837 17.092 76.0256C16.9192 74.6681 16.3902 73.378 15.5569 72.2821V72.2722Z" fill="#FDAF0A"/>
<path d="M38.4919 72.2725C38.0308 71.6682 37.4847 71.1314 36.87 70.6785C35.7973 69.886 34.5388 69.3721 33.211 69.1839C32.4501 69.0757 31.6775 69.0757 30.9168 69.1839H30.8762C29.5145 69.3949 28.1215 69.2892 26.809 68.8746C25.4967 68.4599 24.3016 67.7489 23.3195 66.798L20.5963 64.133L19.4948 63.0505C18.5267 62.0857 17.8027 60.9114 17.3811 59.6208C16.9594 58.3308 16.8519 56.9618 17.0672 55.6236V55.5834C17.1776 54.8361 17.1776 54.0763 17.0672 53.3285V53.2888C16.8518 51.9506 16.9592 50.5811 17.3809 49.2911C17.8026 48.001 18.5266 46.8267 19.4948 45.8619L20.5963 44.7794L22.218 43.1855L23.3195 42.103C24.301 41.1511 25.4961 40.4395 26.8086 40.0249C28.1213 39.6108 29.5145 39.505 30.8762 39.7166H30.9168C32.4877 39.939 34.0909 39.6987 35.523 39.0259C36.9553 38.3531 38.1523 37.2783 38.9629 35.9368C39.7738 34.5955 40.1617 33.0481 40.0777 31.4902C39.994 29.9323 39.442 28.4336 38.4919 27.1839C38.0308 26.5797 37.4847 26.0432 36.87 25.59C35.7973 24.7978 34.5388 24.2839 33.211 24.0955C32.4501 23.987 31.6775 23.987 30.9168 24.0955C29.5881 24.2839 28.3291 24.7978 27.2558 25.59C26.6412 26.0432 26.095 26.5797 25.634 27.1839C24.828 28.239 24.3051 29.4764 24.1136 30.782C24.0032 31.5292 24.0032 32.2881 24.1136 33.0352C24.1127 33.0491 24.1127 33.0629 24.1136 33.0767C24.3293 34.414 24.2231 35.7822 23.8037 37.0716C23.3841 38.3611 22.6627 39.5363 21.6978 40.5021L17.873 44.2679C16.8911 45.2188 15.6958 45.9299 14.3835 46.344C13.0711 46.7586 11.6781 46.8649 10.3165 46.6539H10.2742C9.51402 46.5456 8.7419 46.5456 7.98171 46.6539C6.6532 46.8421 5.39421 47.356 4.32084 48.148C3.70614 48.6013 3.16008 49.1381 2.69904 49.7424C1.89304 50.7971 1.37017 52.0345 1.1786 53.3404C1.06823 54.0882 1.06823 54.8475 1.1786 55.5953C1.33024 56.6202 1.68581 57.6053 2.225 58.4956C2.76419 59.385 3.47644 60.1621 4.32106 60.7813C5.16569 61.4005 6.12617 61.8498 7.1476 62.1041C8.16904 62.3588 9.23151 62.4124 10.2742 62.2635H10.3165C11.6777 62.0514 13.0705 62.1567 14.383 62.5703C15.6954 62.9835 16.8908 63.694 17.873 64.6444L18.9745 65.7269L20.5963 67.3208L21.6978 68.4038C22.6652 69.3686 23.3889 70.5435 23.8106 71.833C24.2321 73.1231 24.3401 74.4925 24.1254 75.8308C24.1245 75.8442 24.1245 75.8571 24.1254 75.8705C24.015 76.6183 24.015 77.3775 24.1254 78.1253C24.3731 79.8111 25.1691 81.3728 26.3943 82.5769C27.6197 83.781 29.2085 84.5631 30.9235 84.8069C31.6845 84.9132 32.4568 84.9132 33.2177 84.8069C34.5952 84.6108 35.8973 84.0656 36.996 83.2259C38.0948 82.3857 38.9526 81.2799 39.4852 80.0157C40.0177 78.752 40.2067 77.373 40.0338 76.016C39.8609 74.6584 39.3318 73.3684 38.4986 72.2725H38.4919Z" fill="#FDAF0A"/>
<path d="M84.3637 72.2722C83.7327 71.4425 82.9415 70.7433 82.0351 70.214C81.1293 69.6852 80.1259 69.3366 79.0827 69.1886C78.3218 69.0804 77.5493 69.0804 76.7885 69.1886C75.4603 69.3778 74.2013 69.8917 73.1277 70.6832C72.5128 71.1361 71.9667 71.6729 71.506 72.2772C70.4688 73.6417 69.908 75.2992 69.908 77.0028C69.908 78.706 70.4688 80.3635 71.506 81.728C71.9667 82.3323 72.5128 82.8691 73.1277 83.322C74.2013 84.1135 75.4603 84.6274 76.7885 84.8166C77.5493 84.9248 78.3218 84.9248 79.0827 84.8166C80.4604 84.6204 81.7623 84.0757 82.8612 83.2356C83.96 82.3954 84.8179 81.2896 85.3504 80.0253C85.8829 78.7611 86.0718 77.3827 85.899 76.0256C85.7262 74.6681 85.1968 73.378 84.3637 72.2821V72.2722Z" fill="#FDAF0A"/>
</g>
</g>
</g>
<defs>
<clipPath id="clip0_926_827">
<rect width="86" height="86" fill="white" transform="translate(0.5)"/>
</clipPath>
</defs>
</svg>
