<svg width="172" height="45" viewBox="0 0 172 45" fill="none" xmlns="http://www.w3.org/2000/svg">
<g clip-path="url(#clip0_926_827)">
<path d="M11.1816 -0.0668945V27.5165C11.1816 30.0064 11.8045 31.7695 13.0509 32.8056C14.2972 33.8418 15.8354 34.3608 17.6656 34.3624C19.4978 34.3624 21.0367 33.8437 22.2831 32.8056C23.5294 31.7676 24.1523 30.0045 24.1523 27.5165V-0.0668945H35.784V28.83C35.784 33.4396 34.1861 37.3614 30.9906 40.5957C27.7489 43.8224 23.307 45.435 17.6656 45.4331C12.0241 45.4312 7.59556 43.815 4.37957 40.5845C1.15972 37.3594 -0.450073 33.4413 -0.450073 28.83V-0.0668945H11.1816Z" fill="#FDAF0A"/>
<path d="M54.621 -0.0668945L66.6355 23.3781L78.6248 -0.0668945H90.2734V44.8882H78.6248V23.4495L70.6478 39.9775H62.6011L54.621 23.4495V44.8882H42.9755V-0.0668945H54.621Z" fill="#FDAF0A"/>
<path d="M129.551 -0.0668945V10.6524H108.873V18.744H128.212V29.4661H108.873V44.8882H97.1893V-0.0668945H129.551Z" fill="#FDAF0A"/>
<path d="M134.806 -0.0668945H172.423V10.3075H159.482V44.8882H147.817V10.3075H134.806V-0.0668945Z" fill="#FDAF0A"/>
</g>
<defs>
<clipPath id="clip0_926_827">
<rect width="172" height="45" fill="white"/>
</clipPath>
</defs>
</svg>
