<svg width="219" height="59" viewBox="0 0 219 59" fill="none" xmlns="http://www.w3.org/2000/svg">
<path d="M75.559 4.05389V10.9708C75.559 11.7068 75.3957 12.3722 75.0691 12.9668C74.7474 13.5567 74.2575 14.0246 73.5994 14.3707C72.9463 14.7168 72.1225 14.8898 71.1281 14.8898C69.7145 14.8898 68.6372 14.5291 67.8963 13.8077C67.1554 13.0863 66.7849 12.1309 66.7849 10.9415V4.05389H69.0442V10.5979C69.0442 11.4801 69.2246 12.0992 69.5853 12.455C69.946 12.8109 70.4798 12.9888 71.1866 12.9888C71.6838 12.9888 72.0859 12.9035 72.393 12.7329C72.705 12.5623 72.9341 12.299 73.0803 11.9432C73.2265 11.5874 73.2997 11.134 73.2997 10.5832V4.05389H75.559ZM82.644 6.41557C83.5165 6.41557 84.2185 6.65442 84.7498 7.13211C85.2811 7.60494 85.5468 8.36535 85.5468 9.41336V14.7436H83.3167V9.96905C83.3167 9.38412 83.2094 8.94298 82.995 8.64563C82.7854 8.34829 82.4539 8.19962 82.0006 8.19962C81.3182 8.19962 80.8526 8.43116 80.604 8.89423C80.3554 9.35731 80.2311 10.0251 80.2311 10.8976V14.7436H78.0011V6.56911H79.7047L80.0045 7.61468H80.1288C80.3043 7.33197 80.5212 7.10287 80.7795 6.92739C81.0427 6.7519 81.3328 6.62273 81.6496 6.53987C81.9713 6.457 82.3028 6.41557 82.644 6.41557ZM90.0727 6.56911V14.7436H87.8426V6.56911H90.0727ZM88.9613 3.36659C89.2928 3.36659 89.5779 3.44458 89.8168 3.60056C90.0556 3.75167 90.1751 4.03683 90.1751 4.45603C90.1751 4.87036 90.0556 5.15795 89.8168 5.31881C89.5779 5.47479 89.2928 5.55279 88.9613 5.55279C88.625 5.55279 88.3374 5.47479 88.0985 5.31881C87.8646 5.15795 87.7476 4.87036 87.7476 4.45603C87.7476 4.03683 87.8646 3.75167 88.0985 3.60056C88.3374 3.44458 88.625 3.36659 88.9613 3.36659ZM94.3647 14.7436L91.2499 6.56911H93.5823L95.1616 11.2267C95.2494 11.4996 95.3176 11.7872 95.3664 12.0894C95.42 12.3917 95.4565 12.6622 95.476 12.901H95.5345C95.5492 12.6427 95.5833 12.3673 95.6369 12.0748C95.6954 11.7824 95.7709 11.4996 95.8636 11.2267L97.4356 6.56911H99.768L96.6532 14.7436H94.3647ZM104.316 6.41557C105.071 6.41557 105.722 6.5618 106.268 6.85427C106.814 7.14186 107.236 7.56107 107.533 8.11188C107.83 8.66269 107.979 9.33537 107.979 10.1299V11.212H102.707C102.732 11.8408 102.919 12.3356 103.27 12.6963C103.626 13.0522 104.118 13.2301 104.747 13.2301C105.269 13.2301 105.747 13.1765 106.18 13.0692C106.614 12.962 107.06 12.8011 107.518 12.5866V14.3122C107.114 14.5121 106.69 14.6583 106.246 14.7509C105.807 14.8435 105.274 14.8898 104.645 14.8898C103.826 14.8898 103.1 14.7387 102.466 14.4365C101.837 14.1343 101.342 13.6736 100.982 13.0546C100.626 12.4355 100.448 11.6556 100.448 10.7148C100.448 9.75945 100.609 8.96491 100.931 8.33123C101.257 7.69268 101.71 7.21498 102.291 6.89814C102.871 6.57642 103.546 6.41557 104.316 6.41557ZM104.331 8.0022C103.897 8.0022 103.536 8.14113 103.248 8.41897C102.966 8.69682 102.802 9.13308 102.758 9.72777H105.888C105.883 9.3963 105.822 9.1014 105.705 8.84305C105.593 8.5847 105.422 8.37998 105.193 8.22887C104.969 8.07776 104.681 8.0022 104.331 8.0022ZM114.355 6.41557C114.467 6.41557 114.596 6.42288 114.742 6.4375C114.893 6.44725 115.015 6.46187 115.108 6.48137L114.94 8.57252C114.867 8.54815 114.762 8.53108 114.625 8.52134C114.494 8.50671 114.379 8.4994 114.282 8.4994C113.994 8.4994 113.714 8.53596 113.441 8.60908C113.173 8.68219 112.932 8.80162 112.717 8.96735C112.503 9.12821 112.332 9.34268 112.205 9.61078C112.083 9.874 112.022 10.1982 112.022 10.5832V14.7436H109.792V6.56911H111.481L111.81 7.94371H111.92C112.081 7.66587 112.281 7.41239 112.52 7.18329C112.763 6.94932 113.039 6.76409 113.346 6.62761C113.658 6.48625 113.994 6.41557 114.355 6.41557ZM122.295 12.3161C122.295 12.8718 122.164 13.3422 121.901 13.7273C121.642 14.1075 121.255 14.3975 120.738 14.5974C120.221 14.7923 119.578 14.8898 118.808 14.8898C118.237 14.8898 117.747 14.8533 117.338 14.7801C116.933 14.707 116.524 14.5852 116.11 14.4146V12.572C116.553 12.7719 117.028 12.9376 117.535 13.0692C118.047 13.1959 118.496 13.2593 118.881 13.2593C119.315 13.2593 119.624 13.1959 119.809 13.0692C119.999 12.9376 120.095 12.767 120.095 12.5574C120.095 12.4209 120.056 12.299 119.978 12.1918C119.904 12.0797 119.744 11.9554 119.495 11.8189C119.246 11.6776 118.856 11.4948 118.325 11.2705C117.813 11.0561 117.392 10.8391 117.06 10.6198C116.734 10.4004 116.49 10.1421 116.329 9.84475C116.173 9.54254 116.095 9.15989 116.095 8.69682C116.095 7.94127 116.387 7.3734 116.972 6.99319C117.562 6.60811 118.349 6.41557 119.334 6.41557C119.841 6.41557 120.324 6.46675 120.782 6.56911C121.245 6.67148 121.72 6.83477 122.208 7.059L121.535 8.66757C121.13 8.49209 120.748 8.34829 120.387 8.23618C120.031 8.12407 119.668 8.06801 119.298 8.06801C118.971 8.06801 118.725 8.11188 118.559 8.19962C118.393 8.28736 118.31 8.42141 118.31 8.60176C118.31 8.73337 118.352 8.85036 118.435 8.95273C118.523 9.05509 118.688 9.16964 118.932 9.29638C119.181 9.41824 119.544 9.57666 120.021 9.77164C120.484 9.96174 120.887 10.1616 121.228 10.3712C121.569 10.5759 121.832 10.8318 122.018 11.1389C122.203 11.4411 122.295 11.8335 122.295 12.3161ZM126.266 6.56911V14.7436H124.036V6.56911H126.266ZM125.154 3.36659C125.486 3.36659 125.771 3.44458 126.01 3.60056C126.249 3.75167 126.368 4.03683 126.368 4.45603C126.368 4.87036 126.249 5.15795 126.01 5.31881C125.771 5.47479 125.486 5.55279 125.154 5.55279C124.818 5.55279 124.53 5.47479 124.291 5.31881C124.057 5.15795 123.94 4.87036 123.94 4.45603C123.94 4.03683 124.057 3.75167 124.291 3.60056C124.53 3.44458 124.818 3.36659 125.154 3.36659ZM132.056 13.1131C132.3 13.1131 132.537 13.0887 132.766 13.04C133 12.9912 133.231 12.9303 133.46 12.8572V14.5169C133.221 14.6242 132.924 14.7119 132.568 14.7801C132.217 14.8533 131.832 14.8898 131.413 14.8898C130.926 14.8898 130.487 14.8118 130.097 14.6559C129.712 14.495 129.407 14.2196 129.183 13.8296C128.964 13.4348 128.854 12.8864 128.854 12.1845V8.24349H127.786V7.30028L129.015 6.55449L129.658 4.82893H131.084V6.56911H133.373V8.24349H131.084V12.1845C131.084 12.4965 131.172 12.7304 131.347 12.8864C131.528 13.0375 131.764 13.1131 132.056 13.1131ZM133.95 6.56911H136.392L137.935 11.1682C137.984 11.3144 138.025 11.4631 138.059 11.6142C138.093 11.7653 138.123 11.9213 138.147 12.0821C138.171 12.243 138.191 12.4112 138.206 12.5866H138.249C138.279 12.3234 138.318 12.0773 138.366 11.8482C138.42 11.6191 138.486 11.3924 138.564 11.1682L140.077 6.56911H142.468L139.01 15.7892C138.8 16.3546 138.527 16.825 138.191 17.2003C137.855 17.5805 137.467 17.8657 137.028 18.0558C136.595 18.2459 136.117 18.3409 135.595 18.3409C135.342 18.3409 135.123 18.3263 134.937 18.2971C134.752 18.2727 134.594 18.2459 134.462 18.2166V16.4472C134.564 16.4716 134.694 16.4935 134.85 16.513C135.006 16.5325 135.169 16.5423 135.339 16.5423C135.651 16.5423 135.919 16.4765 136.144 16.3449C136.368 16.2132 136.556 16.0353 136.707 15.8111C136.858 15.5917 136.977 15.3505 137.065 15.0872L137.197 14.6851L133.95 6.56911ZM154.964 10.6417C154.964 11.3242 154.871 11.9286 154.686 12.455C154.506 12.9815 154.24 13.4275 153.889 13.7931C153.543 14.1538 153.124 14.4268 152.632 14.612C152.144 14.7972 151.593 14.8898 150.979 14.8898C150.404 14.8898 149.875 14.7972 149.393 14.612C148.915 14.4268 148.498 14.1538 148.142 13.7931C147.791 13.4275 147.518 12.9815 147.323 12.455C147.133 11.9286 147.038 11.3242 147.038 10.6417C147.038 9.73508 147.199 8.96735 147.521 8.33854C147.842 7.70974 148.301 7.23204 148.895 6.90545C149.49 6.57886 150.199 6.41557 151.023 6.41557C151.788 6.41557 152.466 6.57886 153.056 6.90545C153.65 7.23204 154.116 7.70974 154.452 8.33854C154.793 8.96735 154.964 9.73508 154.964 10.6417ZM149.312 10.6417C149.312 11.1779 149.371 11.6288 149.488 11.9944C149.605 12.36 149.787 12.6354 150.036 12.8206C150.285 13.0058 150.609 13.0985 151.008 13.0985C151.403 13.0985 151.723 13.0058 151.966 12.8206C152.215 12.6354 152.395 12.36 152.507 11.9944C152.624 11.6288 152.683 11.1779 152.683 10.6417C152.683 10.1007 152.624 9.65221 152.507 9.29638C152.395 8.93567 152.215 8.66513 151.966 8.48478C151.718 8.30442 151.393 8.21424 150.994 8.21424C150.404 8.21424 149.975 8.41653 149.707 8.82112C149.444 9.2257 149.312 9.83257 149.312 10.6417ZM161.325 8.24349H159.395V14.7436H157.165V8.24349H155.936V7.16867L157.165 6.56911V5.96955C157.165 5.2725 157.282 4.73144 157.516 4.34636C157.755 3.9564 158.089 3.68343 158.518 3.52745C158.951 3.36659 159.463 3.28616 160.053 3.28616C160.487 3.28616 160.882 3.32272 161.237 3.39583C161.593 3.46408 161.883 3.54207 162.108 3.62981L161.537 5.26763C161.367 5.21401 161.181 5.16527 160.982 5.1214C160.782 5.07753 160.553 5.05559 160.294 5.05559C159.982 5.05559 159.753 5.15064 159.607 5.34075C159.466 5.52598 159.395 5.76482 159.395 6.05729V6.56911H161.325V8.24349ZM71.384 34.7436L68.8103 26.3571H68.7445C68.7542 26.5569 68.7688 26.8591 68.7883 27.2637C68.8127 27.6634 68.8346 28.0899 68.8541 28.5433C68.8736 28.9966 68.8834 29.4061 68.8834 29.7716V34.7436H66.858V24.0539H69.9436L72.4734 32.2284H72.5173L75.2007 24.0539H78.2862V34.7436H76.1732V29.6839C76.1732 29.3476 76.178 28.96 76.1878 28.5213C76.2024 28.0826 76.2195 27.6659 76.239 27.271C76.2585 26.8713 76.2731 26.5715 76.2828 26.3717H76.217L73.4605 34.7436H71.384ZM84.1575 26.4009C85.2543 26.4009 86.0951 26.6398 86.6801 27.1175C87.265 27.5952 87.5575 28.3215 87.5575 29.2964V34.7436H86.0001L85.5687 33.6322H85.5102C85.2762 33.9247 85.0374 34.1635 84.7936 34.3488C84.5499 34.534 84.2696 34.6705 83.9528 34.7582C83.636 34.846 83.2509 34.8898 82.7976 34.8898C82.315 34.8898 81.8812 34.7972 81.4961 34.612C81.1159 34.4268 80.8161 34.144 80.5967 33.7638C80.3774 33.3787 80.2677 32.8913 80.2677 32.3015C80.2677 31.4338 80.5724 30.7953 81.1817 30.3858C81.791 29.9715 82.7049 29.7424 83.9236 29.6985L85.342 29.6546V29.2964C85.342 28.8674 85.2299 28.553 85.0057 28.3532C84.7815 28.1533 84.4695 28.0534 84.0698 28.0534C83.675 28.0534 83.2874 28.1094 82.9072 28.2216C82.527 28.3337 82.1468 28.475 81.7666 28.6456L81.0281 27.1394C81.4619 26.9103 81.947 26.73 82.4831 26.5984C83.0242 26.4667 83.5823 26.4009 84.1575 26.4009ZM85.342 30.9561L84.4792 30.9854C83.7578 31.0049 83.2558 31.134 82.973 31.3729C82.6952 31.6117 82.5563 31.9261 82.5563 32.3161C82.5563 32.6573 82.6562 32.901 82.856 33.0473C83.0559 33.1886 83.3167 33.2593 83.6384 33.2593C84.1161 33.2593 84.5182 33.118 84.8448 32.8352C85.1763 32.5525 85.342 32.1504 85.342 31.6288V30.9561ZM94.5036 26.4156C95.3761 26.4156 96.078 26.6544 96.6094 27.1321C97.1407 27.6049 97.4063 28.3654 97.4063 29.4134V34.7436H95.1763V29.9691C95.1763 29.3841 95.069 28.943 94.8545 28.6456C94.6449 28.3483 94.3135 28.1996 93.8602 28.1996C93.1777 28.1996 92.7122 28.4312 92.4636 28.8942C92.215 29.3573 92.0907 30.0251 92.0907 30.8976V34.7436H89.8607V26.5691H91.5643L91.8641 27.6147H91.9884C92.1638 27.332 92.3808 27.1029 92.6391 26.9274C92.9023 26.7519 93.1923 26.6227 93.5092 26.5399C93.8309 26.457 94.1624 26.4156 94.5036 26.4156ZM103.051 26.4009C104.148 26.4009 104.989 26.6398 105.573 27.1175C106.158 27.5952 106.451 28.3215 106.451 29.2964V34.7436H104.894L104.462 33.6322H104.404C104.17 33.9247 103.931 34.1635 103.687 34.3488C103.443 34.534 103.163 34.6705 102.846 34.7582C102.529 34.846 102.144 34.8898 101.691 34.8898C101.208 34.8898 100.775 34.7972 100.39 34.612C100.009 34.4268 99.7095 34.144 99.4902 33.7638C99.2708 33.3787 99.1611 32.8913 99.1611 32.3015C99.1611 31.4338 99.4658 30.7953 100.075 30.3858C100.684 29.9715 101.598 29.7424 102.817 29.6985L104.235 29.6546V29.2964C104.235 28.8674 104.123 28.553 103.899 28.3532C103.675 28.1533 103.363 28.0534 102.963 28.0534C102.568 28.0534 102.181 28.1094 101.801 28.2216C101.42 28.3337 101.04 28.475 100.66 28.6456L99.9216 27.1394C100.355 26.9103 100.84 26.73 101.377 26.5984C101.918 26.4667 102.476 26.4009 103.051 26.4009ZM104.235 30.9561L103.373 30.9854C102.651 31.0049 102.149 31.134 101.866 31.3729C101.589 31.6117 101.45 31.9261 101.45 32.3161C101.45 32.6573 101.55 32.901 101.749 33.0473C101.949 33.1886 102.21 33.2593 102.532 33.2593C103.01 33.2593 103.412 33.118 103.738 32.8352C104.07 32.5525 104.235 32.1504 104.235 31.6288V30.9561ZM111.145 38.3409C110.004 38.3409 109.132 38.1411 108.527 37.7414C107.928 37.3466 107.628 36.7909 107.628 36.0743C107.628 35.582 107.782 35.1701 108.089 34.8386C108.396 34.5072 108.847 34.2708 109.441 34.1294C109.212 34.0319 109.012 33.8735 108.842 33.6541C108.671 33.4299 108.586 33.1935 108.586 32.9449C108.586 32.6329 108.676 32.3746 108.856 32.1699C109.037 31.9603 109.298 31.7555 109.639 31.5557C109.21 31.3705 108.869 31.0731 108.615 30.6637C108.367 30.2542 108.242 29.7716 108.242 29.2159C108.242 28.6213 108.371 28.1168 108.63 27.7024C108.893 27.2832 109.273 26.9639 109.77 26.7446C110.272 26.5252 110.882 26.4156 111.598 26.4156C111.749 26.4156 111.925 26.4253 112.125 26.4448C112.325 26.4643 112.507 26.4862 112.673 26.5106C112.844 26.535 112.958 26.5545 113.017 26.5691H115.868V27.7024L114.589 28.0315C114.706 28.2118 114.794 28.4043 114.852 28.6091C114.911 28.8138 114.94 29.0307 114.94 29.2598C114.94 30.1372 114.633 30.8221 114.019 31.3144C113.409 31.8019 112.561 32.0456 111.474 32.0456C111.216 32.031 110.972 32.0115 110.743 31.9871C110.631 32.0748 110.545 32.1674 110.487 32.2649C110.428 32.3624 110.399 32.4648 110.399 32.572C110.399 32.6793 110.443 32.7694 110.531 32.8425C110.623 32.9108 110.76 32.9644 110.94 33.0034C111.126 33.0375 111.355 33.0546 111.628 33.0546H113.017C113.914 33.0546 114.596 33.2471 115.064 33.6322C115.537 34.0173 115.773 34.5827 115.773 35.3285C115.773 36.2839 115.374 37.0248 114.574 37.5513C113.78 38.0777 112.637 38.3409 111.145 38.3409ZM111.24 36.8859C111.771 36.8859 112.227 36.8347 112.607 36.7324C112.992 36.6349 113.287 36.4935 113.492 36.3083C113.697 36.1279 113.799 35.911 113.799 35.6576C113.799 35.4528 113.738 35.2895 113.616 35.1677C113.499 35.0507 113.319 34.9678 113.075 34.9191C112.836 34.8703 112.529 34.846 112.154 34.846H110.999C110.726 34.846 110.48 34.8898 110.26 34.9776C110.046 35.0653 109.875 35.1872 109.748 35.3432C109.622 35.504 109.558 35.6892 109.558 35.8988C109.558 36.2059 109.705 36.4472 109.997 36.6227C110.294 36.7982 110.709 36.8859 111.24 36.8859ZM111.598 30.6856C112.018 30.6856 112.325 30.5564 112.52 30.2981C112.715 30.0397 112.812 29.6888 112.812 29.2452C112.812 28.7529 112.71 28.3849 112.505 28.1411C112.305 27.8925 112.003 27.7682 111.598 27.7682C111.189 27.7682 110.882 27.8925 110.677 28.1411C110.472 28.3849 110.37 28.7529 110.37 29.2452C110.37 29.6888 110.47 30.0397 110.67 30.2981C110.874 30.5564 111.184 30.6856 111.598 30.6856ZM120.592 26.4156C121.347 26.4156 121.998 26.5618 122.544 26.8543C123.09 27.1419 123.512 27.5611 123.809 28.1119C124.106 28.6627 124.255 29.3354 124.255 30.1299V31.212H118.983C119.008 31.8408 119.195 32.3356 119.546 32.6963C119.902 33.0522 120.394 33.2301 121.023 33.2301C121.545 33.2301 122.022 33.1765 122.456 33.0692C122.89 32.962 123.336 32.8011 123.794 32.5866V34.3122C123.39 34.5121 122.966 34.6583 122.522 34.7509C122.083 34.8435 121.55 34.8898 120.921 34.8898C120.102 34.8898 119.376 34.7387 118.742 34.4365C118.113 34.1343 117.618 33.6736 117.258 33.0546C116.902 32.4355 116.724 31.6556 116.724 30.7148C116.724 29.7594 116.885 28.9649 117.206 28.3312C117.533 27.6927 117.986 27.215 118.566 26.8981C119.146 26.5764 119.822 26.4156 120.592 26.4156ZM120.606 28.0022C120.173 28.0022 119.812 28.1411 119.524 28.419C119.241 28.6968 119.078 29.1331 119.034 29.7278H122.164C122.159 29.3963 122.098 29.1014 121.981 28.8431C121.869 28.5847 121.698 28.38 121.469 28.2289C121.245 28.0778 120.957 28.0022 120.606 28.0022ZM135.668 26.4156C136.595 26.4156 137.294 26.6544 137.767 27.1321C138.245 27.6049 138.483 28.3654 138.483 29.4134V34.7436H136.246V29.9691C136.246 29.3841 136.146 28.943 135.946 28.6456C135.746 28.3483 135.437 28.1996 135.018 28.1996C134.428 28.1996 134.009 28.4117 133.76 28.8357C133.511 29.2549 133.387 29.8569 133.387 30.6417V34.7436H131.157V29.9691C131.157 29.5791 131.113 29.2525 131.026 28.9893C130.938 28.7261 130.804 28.5286 130.623 28.397C130.443 28.2654 130.211 28.1996 129.929 28.1996C129.514 28.1996 129.188 28.3044 128.949 28.514C128.715 28.7188 128.547 29.0234 128.444 29.428C128.347 29.8277 128.298 30.3176 128.298 30.8976V34.7436H126.068V26.5691H127.772L128.072 27.6147H128.196C128.362 27.332 128.569 27.1029 128.817 26.9274C129.071 26.7519 129.349 26.6227 129.651 26.5399C129.953 26.457 130.26 26.4156 130.572 26.4156C131.172 26.4156 131.679 26.5131 132.093 26.708C132.512 26.903 132.834 27.2052 133.058 27.6147H133.256C133.499 27.1955 133.843 26.8908 134.287 26.7007C134.735 26.5106 135.196 26.4156 135.668 26.4156ZM144.15 26.4156C144.906 26.4156 145.556 26.5618 146.102 26.8543C146.648 27.1419 147.07 27.5611 147.367 28.1119C147.665 28.6627 147.813 29.3354 147.813 30.1299V31.212H142.541C142.566 31.8408 142.753 32.3356 143.104 32.6963C143.46 33.0522 143.953 33.2301 144.581 33.2301C145.103 33.2301 145.581 33.1765 146.014 33.0692C146.448 32.962 146.894 32.8011 147.353 32.5866V34.3122C146.948 34.5121 146.524 34.6583 146.08 34.7509C145.642 34.8435 145.108 34.8898 144.479 34.8898C143.66 34.8898 142.934 34.7387 142.3 34.4365C141.671 34.1343 141.177 33.6736 140.816 33.0546C140.46 32.4355 140.282 31.6556 140.282 30.7148C140.282 29.7594 140.443 28.9649 140.765 28.3312C141.091 27.6927 141.545 27.215 142.125 26.8981C142.705 26.5764 143.38 26.4156 144.15 26.4156ZM144.165 28.0022C143.731 28.0022 143.37 28.1411 143.083 28.419C142.8 28.6968 142.636 29.1331 142.593 29.7278H145.722C145.717 29.3963 145.656 29.1014 145.539 28.8431C145.427 28.5847 145.257 28.38 145.027 28.2289C144.803 28.0778 144.516 28.0022 144.165 28.0022ZM154.269 26.4156C155.142 26.4156 155.844 26.6544 156.375 27.1321C156.906 27.6049 157.172 28.3654 157.172 29.4134V34.7436H154.942V29.9691C154.942 29.3841 154.835 28.943 154.62 28.6456C154.411 28.3483 154.079 28.1996 153.626 28.1996C152.944 28.1996 152.478 28.4312 152.229 28.8942C151.981 29.3573 151.857 30.0251 151.857 30.8976V34.7436H149.626V26.5691H151.33L151.63 27.6147H151.754C151.93 27.332 152.147 27.1029 152.405 26.9274C152.668 26.7519 152.958 26.6227 153.275 26.5399C153.597 26.457 153.928 26.4156 154.269 26.4156ZM162.912 33.1131C163.156 33.1131 163.392 33.0887 163.621 33.04C163.855 32.9912 164.087 32.9303 164.316 32.8572V34.5169C164.077 34.6242 163.779 34.7119 163.424 34.7801C163.073 34.8533 162.688 34.8898 162.268 34.8898C161.781 34.8898 161.342 34.8118 160.952 34.6559C160.567 34.495 160.263 34.2196 160.038 33.8296C159.819 33.4348 159.709 32.8864 159.709 32.1845V28.2435H158.642V27.3003L159.87 26.5545L160.514 24.8289H161.939V26.5691H164.228V28.2435H161.939V32.1845C161.939 32.4965 162.027 32.7304 162.203 32.8864C162.383 33.0375 162.619 33.1131 162.912 33.1131ZM173.214 26.4009C174.311 26.4009 175.152 26.6398 175.737 27.1175C176.321 27.5952 176.614 28.3215 176.614 29.2964V34.7436H175.057L174.625 33.6322H174.567C174.333 33.9247 174.094 34.1635 173.85 34.3488C173.606 34.534 173.326 34.6705 173.009 34.7582C172.692 34.846 172.307 34.8898 171.854 34.8898C171.371 34.8898 170.938 34.7972 170.553 34.612C170.172 34.4268 169.873 34.144 169.653 33.7638C169.434 33.3787 169.324 32.8913 169.324 32.3015C169.324 31.4338 169.629 30.7953 170.238 30.3858C170.847 29.9715 171.761 29.7424 172.98 29.6985L174.399 29.6546V29.2964C174.399 28.8674 174.286 28.553 174.062 28.3532C173.838 28.1533 173.526 28.0534 173.126 28.0534C172.731 28.0534 172.344 28.1094 171.964 28.2216C171.584 28.3337 171.203 28.475 170.823 28.6456L170.085 27.1394C170.518 26.9103 171.003 26.73 171.54 26.5984C172.081 26.4667 172.639 26.4009 173.214 26.4009ZM174.399 30.9561L173.536 30.9854C172.814 31.0049 172.312 31.134 172.03 31.3729C171.752 31.6117 171.613 31.9261 171.613 32.3161C171.613 32.6573 171.713 32.901 171.913 33.0473C172.112 33.1886 172.373 33.2593 172.695 33.2593C173.173 33.2593 173.575 33.118 173.901 32.8352C174.233 32.5525 174.399 32.1504 174.399 31.6288V30.9561ZM183.56 26.4156C184.433 26.4156 185.135 26.6544 185.666 27.1321C186.197 27.6049 186.463 28.3654 186.463 29.4134V34.7436H184.233V29.9691C184.233 29.3841 184.126 28.943 183.911 28.6456C183.701 28.3483 183.37 28.1996 182.917 28.1996C182.234 28.1996 181.769 28.4312 181.52 28.8942C181.272 29.3573 181.147 30.0251 181.147 30.8976V34.7436H178.917V26.5691H180.621L180.921 27.6147H181.045C181.22 27.332 181.437 27.1029 181.696 26.9274C181.959 26.7519 182.249 26.6227 182.566 26.5399C182.887 26.457 183.219 26.4156 183.56 26.4156ZM191.347 34.8898C190.436 34.8898 189.692 34.534 189.117 33.8223C188.547 33.1058 188.261 32.0553 188.261 30.671C188.261 29.272 188.552 28.2142 189.132 27.4977C189.712 26.7763 190.47 26.4156 191.406 26.4156C191.795 26.4156 192.139 26.4692 192.436 26.5764C192.734 26.6837 192.99 26.8275 193.204 27.0078C193.424 27.1882 193.609 27.3905 193.76 27.6147H193.833C193.804 27.4587 193.767 27.2296 193.723 26.9274C193.684 26.6203 193.665 26.3059 193.665 25.9842V23.3666H195.902V34.7436H194.191L193.76 33.6834H193.665C193.523 33.9076 193.346 34.1123 193.131 34.2976C192.921 34.4779 192.67 34.6217 192.378 34.729C192.086 34.8362 191.742 34.8898 191.347 34.8898ZM192.129 33.1131C192.739 33.1131 193.168 32.9327 193.416 32.572C193.67 32.2064 193.804 31.6581 193.818 30.9269V30.6856C193.818 29.8911 193.697 29.2842 193.453 28.865C193.209 28.4409 192.756 28.2289 192.093 28.2289C191.601 28.2289 191.215 28.4409 190.938 28.865C190.66 29.2891 190.521 29.9008 190.521 30.7002C190.521 31.4996 190.66 32.1016 190.938 32.5062C191.22 32.9108 191.618 33.1131 192.129 33.1131ZM69.0881 54.7436H66.858V44.0539H72.9853V45.9111H69.0881V48.6676H72.7147V50.5174H69.0881V54.7436ZM82.4027 46.5691V54.7436H80.6918L80.392 53.698H80.275C80.0995 53.9759 79.8802 54.2025 79.617 54.378C79.3537 54.5535 79.0637 54.6827 78.7469 54.7655C78.43 54.8484 78.101 54.8898 77.7598 54.8898C77.1749 54.8898 76.6655 54.7875 76.2316 54.5827C75.7978 54.3731 75.459 54.049 75.2153 53.6103C74.9765 53.1716 74.857 52.6013 74.857 51.8993V46.5691H77.0871V51.3437C77.0871 51.9286 77.1919 52.3697 77.4015 52.6671C77.6111 52.9644 77.945 53.1131 78.4032 53.1131C78.8565 53.1131 79.2124 53.0107 79.4707 52.806C79.7291 52.5964 79.9094 52.2917 80.0118 51.892C80.119 51.4874 80.1727 50.9951 80.1727 50.4151V46.5691H82.4027ZM88.1863 53.1131C88.43 53.1131 88.6664 53.0887 88.8955 53.04C89.1295 52.9912 89.361 52.9303 89.5901 52.8572V54.5169C89.3513 54.6242 89.0539 54.7119 88.6981 54.7801C88.3471 54.8533 87.962 54.8898 87.5428 54.8898C87.0554 54.8898 86.6167 54.8118 86.2267 54.6559C85.8417 54.495 85.537 54.2196 85.3128 53.8296C85.0934 53.4348 84.9837 52.8864 84.9837 52.1845V48.2435H83.9162V47.3003L85.1446 46.5545L85.788 44.8289H87.2138V46.5691H89.5024V48.2435H87.2138V52.1845C87.2138 52.4965 87.3016 52.7304 87.477 52.8864C87.6574 53.0375 87.8938 53.1131 88.1863 53.1131ZM98.7517 46.5691V54.7436H97.0407L96.741 53.698H96.624C96.4485 53.9759 96.2291 54.2025 95.9659 54.378C95.7027 54.5535 95.4127 54.6827 95.0958 54.7655C94.779 54.8484 94.45 54.8898 94.1087 54.8898C93.5238 54.8898 93.0144 54.7875 92.5806 54.5827C92.1468 54.3731 91.808 54.049 91.5643 53.6103C91.3254 53.1716 91.206 52.6013 91.206 51.8993V46.5691H93.4361V51.3437C93.4361 51.9286 93.5409 52.3697 93.7505 52.6671C93.9601 52.9644 94.294 53.1131 94.7522 53.1131C95.2055 53.1131 95.5613 53.0107 95.8197 52.806C96.078 52.5964 96.2584 52.2917 96.3608 51.892C96.468 51.4874 96.5216 50.9951 96.5216 50.4151V46.5691H98.7517ZM105.654 46.4156C105.766 46.4156 105.895 46.4229 106.041 46.4375C106.193 46.4473 106.314 46.4619 106.407 46.4814L106.239 48.5725C106.166 48.5481 106.061 48.5311 105.924 48.5213C105.793 48.5067 105.678 48.4994 105.581 48.4994C105.293 48.4994 105.013 48.536 104.74 48.6091C104.472 48.6822 104.231 48.8016 104.016 48.9673C103.802 49.1282 103.631 49.3427 103.504 49.6108C103.382 49.874 103.321 50.1982 103.321 50.5832V54.7436H101.091V46.5691H102.78L103.109 47.9437H103.219C103.38 47.6659 103.58 47.4124 103.819 47.1833C104.062 46.9493 104.338 46.7641 104.645 46.6276C104.957 46.4862 105.293 46.4156 105.654 46.4156ZM111.262 46.4156C112.018 46.4156 112.668 46.5618 113.214 46.8543C113.76 47.1419 114.182 47.5611 114.479 48.1119C114.776 48.6627 114.925 49.3354 114.925 50.1299V51.212H109.653C109.678 51.8408 109.865 52.3356 110.216 52.6963C110.572 53.0522 111.065 53.2301 111.693 53.2301C112.215 53.2301 112.693 53.1765 113.126 53.0692C113.56 52.962 114.006 52.8011 114.465 52.5866V54.3122C114.06 54.5121 113.636 54.6583 113.192 54.7509C112.754 54.8435 112.22 54.8898 111.591 54.8898C110.772 54.8898 110.046 54.7387 109.412 54.4365C108.783 54.1343 108.289 53.6736 107.928 53.0546C107.572 52.4355 107.394 51.6556 107.394 50.7148C107.394 49.7594 107.555 48.9649 107.877 48.3312C108.203 47.6927 108.657 47.215 109.237 46.8981C109.817 46.5764 110.492 46.4156 111.262 46.4156ZM111.277 48.0022C110.843 48.0022 110.482 48.1411 110.194 48.419C109.912 48.6968 109.748 49.1331 109.705 49.7278H112.834C112.829 49.3963 112.768 49.1014 112.651 48.8431C112.539 48.5847 112.369 48.38 112.139 48.2289C111.915 48.0778 111.628 48.0022 111.277 48.0022ZM124.928 54.7436H122.661V45.9403H119.758V44.0539H127.83V45.9403H124.928V54.7436ZM132.671 46.4156C133.426 46.4156 134.077 46.5618 134.623 46.8543C135.169 47.1419 135.59 47.5611 135.888 48.1119C136.185 48.6627 136.334 49.3354 136.334 50.1299V51.212H131.062C131.086 51.8408 131.274 52.3356 131.625 52.6963C131.981 53.0522 132.473 53.2301 133.102 53.2301C133.624 53.2301 134.101 53.1765 134.535 53.0692C134.969 52.962 135.415 52.8011 135.873 52.5866V54.3122C135.469 54.5121 135.045 54.6583 134.601 54.7509C134.162 54.8435 133.628 54.8898 133 54.8898C132.181 54.8898 131.454 54.7387 130.821 54.4365C130.192 54.1343 129.697 53.6736 129.337 53.0546C128.981 52.4355 128.803 51.6556 128.803 50.7148C128.803 49.7594 128.964 48.9649 129.285 48.3312C129.612 47.6927 130.065 47.215 130.645 46.8981C131.225 46.5764 131.9 46.4156 132.671 46.4156ZM132.685 48.0022C132.251 48.0022 131.891 48.1411 131.603 48.419C131.32 48.6968 131.157 49.1331 131.113 49.7278H134.243C134.238 49.3963 134.177 49.1014 134.06 48.8431C133.948 48.5847 133.777 48.38 133.548 48.2289C133.324 48.0778 133.036 48.0022 132.685 48.0022ZM141.467 54.8898C140.657 54.8898 139.968 54.7436 139.397 54.4511C138.827 54.1538 138.393 53.6956 138.096 53.0765C137.799 52.4575 137.65 51.6654 137.65 50.7002C137.65 49.701 137.818 48.8869 138.154 48.2581C138.496 47.6244 138.966 47.1589 139.566 46.8616C140.17 46.5642 140.87 46.4156 141.664 46.4156C142.229 46.4156 142.717 46.4716 143.126 46.5837C143.541 46.691 143.901 46.8201 144.209 46.9713L143.55 48.6968C143.199 48.5555 142.873 48.4409 142.571 48.3532C142.268 48.2606 141.966 48.2142 141.664 48.2142C141.274 48.2142 140.95 48.3069 140.692 48.4921C140.433 48.6724 140.241 48.9454 140.114 49.311C139.987 49.6766 139.924 50.1348 139.924 50.6856C139.924 51.2267 139.992 51.6751 140.129 52.031C140.265 52.3868 140.462 52.6524 140.721 52.8279C140.979 52.9985 141.294 53.0838 141.664 53.0838C142.127 53.0838 142.539 53.0229 142.9 52.901C143.26 52.7743 143.611 52.5988 143.953 52.3746V54.283C143.611 54.4974 143.253 54.651 142.878 54.7436C142.507 54.8411 142.037 54.8898 141.467 54.8898ZM148.084 43.3666V45.6844C148.084 46.089 148.069 46.4741 148.04 46.8396C148.015 47.2052 147.996 47.4636 147.981 47.6147H148.098C148.274 47.332 148.481 47.1029 148.72 46.9274C148.964 46.7519 149.232 46.6227 149.524 46.5399C149.817 46.457 150.131 46.4156 150.467 46.4156C151.057 46.4156 151.571 46.5204 152.01 46.73C152.449 46.9347 152.79 47.2588 153.034 47.7024C153.277 48.1411 153.399 48.7114 153.399 49.4134V54.7436H151.169V49.9691C151.169 49.3841 151.062 48.943 150.848 48.6456C150.633 48.3483 150.302 48.1996 149.853 48.1996C149.405 48.1996 149.051 48.3044 148.793 48.514C148.535 48.7188 148.352 49.0234 148.245 49.428C148.137 49.8277 148.084 50.3176 148.084 50.8976V54.7436H145.854V43.3666H148.084ZM160.338 46.4156C161.211 46.4156 161.913 46.6544 162.444 47.1321C162.975 47.6049 163.241 48.3654 163.241 49.4134V54.7436H161.011V49.9691C161.011 49.3841 160.904 48.943 160.689 48.6456C160.479 48.3483 160.148 48.1996 159.695 48.1996C159.012 48.1996 158.547 48.4312 158.298 48.8942C158.05 49.3573 157.925 50.0251 157.925 50.8976V54.7436H155.695V46.5691H157.399L157.699 47.6147H157.823C157.998 47.332 158.215 47.1029 158.474 46.9274C158.737 46.7519 159.027 46.6227 159.344 46.5399C159.665 46.457 159.997 46.4156 160.338 46.4156ZM172.965 50.6417C172.965 51.3242 172.873 51.9286 172.688 52.455C172.507 52.9815 172.242 53.4275 171.891 53.7931C171.545 54.1538 171.125 54.4268 170.633 54.612C170.146 54.7972 169.595 54.8898 168.981 54.8898C168.405 54.8898 167.876 54.7972 167.394 54.612C166.916 54.4268 166.499 54.1538 166.144 53.7931C165.793 53.4275 165.52 52.9815 165.325 52.455C165.135 51.9286 165.04 51.3242 165.04 50.6417C165.04 49.7351 165.2 48.9673 165.522 48.3385C165.844 47.7097 166.302 47.232 166.897 46.9055C167.491 46.5789 168.201 46.4156 169.024 46.4156C169.79 46.4156 170.467 46.5789 171.057 46.9055C171.652 47.232 172.117 47.7097 172.454 48.3385C172.795 48.9673 172.965 49.7351 172.965 50.6417ZM167.313 50.6417C167.313 51.1779 167.372 51.6288 167.489 51.9944C167.606 52.36 167.789 52.6354 168.037 52.8206C168.286 53.0058 168.61 53.0985 169.01 53.0985C169.405 53.0985 169.724 53.0058 169.968 52.8206C170.216 52.6354 170.397 52.36 170.509 51.9944C170.626 51.6288 170.684 51.1779 170.684 50.6417C170.684 50.1007 170.626 49.6522 170.509 49.2964C170.397 48.9357 170.216 48.6651 169.968 48.4848C169.719 48.3044 169.395 48.2142 168.995 48.2142C168.405 48.2142 167.976 48.4165 167.708 48.8211C167.445 49.2257 167.313 49.8326 167.313 50.6417ZM177.038 54.7436H174.808V43.3666H177.038V54.7436ZM186.814 50.6417C186.814 51.3242 186.721 51.9286 186.536 52.455C186.356 52.9815 186.09 53.4275 185.739 53.7931C185.393 54.1538 184.974 54.4268 184.481 54.612C183.994 54.7972 183.443 54.8898 182.829 54.8898C182.254 54.8898 181.725 54.7972 181.242 54.612C180.765 54.4268 180.348 54.1538 179.992 53.7931C179.641 53.4275 179.368 52.9815 179.173 52.455C178.983 51.9286 178.888 51.3242 178.888 50.6417C178.888 49.7351 179.049 48.9673 179.37 48.3385C179.692 47.7097 180.15 47.232 180.745 46.9055C181.34 46.5789 182.049 46.4156 182.873 46.4156C183.638 46.4156 184.316 46.5789 184.905 46.9055C185.5 47.232 185.966 47.7097 186.302 48.3385C186.643 48.9673 186.814 49.7351 186.814 50.6417ZM181.162 50.6417C181.162 51.1779 181.22 51.6288 181.337 51.9944C181.454 52.36 181.637 52.6354 181.886 52.8206C182.134 53.0058 182.458 53.0985 182.858 53.0985C183.253 53.0985 183.572 53.0058 183.816 52.8206C184.065 52.6354 184.245 52.36 184.357 51.9944C184.474 51.6288 184.533 51.1779 184.533 50.6417C184.533 50.1007 184.474 49.6522 184.357 49.2964C184.245 48.9357 184.065 48.6651 183.816 48.4848C183.567 48.3044 183.243 48.2142 182.844 48.2142C182.254 48.2142 181.825 48.4165 181.557 48.8211C181.293 49.2257 181.162 49.8326 181.162 50.6417ZM191.047 58.3409C189.907 58.3409 189.034 58.1411 188.43 57.7414C187.83 57.3466 187.53 56.7909 187.53 56.0743C187.53 55.582 187.684 55.1701 187.991 54.8386C188.298 54.5072 188.749 54.2708 189.344 54.1294C189.115 54.0319 188.915 53.8735 188.744 53.6541C188.573 53.4299 188.488 53.1935 188.488 52.9449C188.488 52.6329 188.578 52.3746 188.759 52.1699C188.939 51.9603 189.2 51.7555 189.541 51.5557C189.112 51.3705 188.771 51.0731 188.517 50.6637C188.269 50.2542 188.145 49.7716 188.145 49.2159C188.145 48.6213 188.274 48.1168 188.532 47.7024C188.795 47.2832 189.175 46.9639 189.673 46.7446C190.175 46.5252 190.784 46.4156 191.501 46.4156C191.652 46.4156 191.827 46.4253 192.027 46.4448C192.227 46.4643 192.41 46.4862 192.575 46.5106C192.746 46.535 192.861 46.5545 192.919 46.5691H195.771V47.7024L194.491 48.0315C194.608 48.2118 194.696 48.4043 194.754 48.6091C194.813 48.8138 194.842 49.0307 194.842 49.2598C194.842 50.1372 194.535 50.8221 193.921 51.3144C193.311 51.8019 192.463 52.0456 191.376 52.0456C191.118 52.031 190.874 52.0115 190.645 51.9871C190.533 52.0748 190.448 52.1674 190.389 52.2649C190.331 52.3624 190.301 52.4648 190.301 52.572C190.301 52.6793 190.345 52.7694 190.433 52.8425C190.526 52.9108 190.662 52.9644 190.843 53.0034C191.028 53.0375 191.257 53.0546 191.53 53.0546H192.919C193.816 53.0546 194.498 53.2471 194.966 53.6322C195.439 54.0173 195.676 54.5827 195.676 55.3285C195.676 56.2839 195.276 57.0248 194.476 57.5513C193.682 58.0777 192.539 58.3409 191.047 58.3409ZM191.142 56.8859C191.674 56.8859 192.129 56.8347 192.51 56.7324C192.895 56.6349 193.19 56.4935 193.394 56.3083C193.599 56.1279 193.701 55.911 193.701 55.6576C193.701 55.4528 193.64 55.2895 193.519 55.1677C193.402 55.0507 193.221 54.9678 192.978 54.9191C192.739 54.8703 192.432 54.846 192.056 54.846H190.901C190.628 54.846 190.382 54.8898 190.163 54.9776C189.948 55.0653 189.777 55.1872 189.651 55.3432C189.524 55.504 189.461 55.6892 189.461 55.8988C189.461 56.2059 189.607 56.4472 189.899 56.6227C190.197 56.7982 190.611 56.8859 191.142 56.8859ZM191.501 50.6856C191.92 50.6856 192.227 50.5564 192.422 50.2981C192.617 50.0397 192.714 49.6888 192.714 49.2452C192.714 48.7529 192.612 48.3849 192.407 48.1411C192.207 47.8925 191.905 47.7682 191.501 47.7682C191.091 47.7682 190.784 47.8925 190.579 48.1411C190.375 48.3849 190.272 48.7529 190.272 49.2452C190.272 49.6888 190.372 50.0397 190.572 50.2981C190.777 50.5564 191.086 50.6856 191.501 50.6856ZM199.353 46.5691V54.7436H197.123V46.5691H199.353ZM198.242 43.3666C198.573 43.3666 198.859 43.4446 199.097 43.6006C199.336 43.7517 199.456 44.0368 199.456 44.456C199.456 44.8704 199.336 45.158 199.097 45.3188C198.859 45.4748 198.573 45.5528 198.242 45.5528C197.906 45.5528 197.618 45.4748 197.379 45.3188C197.145 45.158 197.028 44.8704 197.028 44.456C197.028 44.0368 197.145 43.7517 197.379 43.6006C197.618 43.4446 197.906 43.3666 198.242 43.3666ZM205.071 46.4156C205.827 46.4156 206.477 46.5618 207.023 46.8543C207.569 47.1419 207.991 47.5611 208.288 48.1119C208.586 48.6627 208.734 49.3354 208.734 50.1299V51.212H203.463C203.487 51.8408 203.675 52.3356 204.026 52.6963C204.381 53.0522 204.874 53.2301 205.502 53.2301C206.024 53.2301 206.502 53.1765 206.936 53.0692C207.369 52.962 207.815 52.8011 208.274 52.5866V54.3122C207.869 54.5121 207.445 54.6583 207.001 54.7509C206.563 54.8435 206.029 54.8898 205.4 54.8898C204.581 54.8898 203.855 54.7387 203.221 54.4365C202.592 54.1343 202.098 53.6736 201.737 53.0546C201.381 52.4355 201.203 51.6556 201.203 50.7148C201.203 49.7594 201.364 48.9649 201.686 48.3312C202.012 47.6927 202.466 47.215 203.046 46.8981C203.626 46.5764 204.301 46.4156 205.071 46.4156ZM205.086 48.0022C204.652 48.0022 204.291 48.1411 204.004 48.419C203.721 48.6968 203.558 49.1331 203.514 49.7278H206.643C206.638 49.3963 206.577 49.1014 206.46 48.8431C206.348 48.5847 206.178 48.38 205.949 48.2289C205.724 48.0778 205.437 48.0022 205.086 48.0022ZM216.251 52.3161C216.251 52.8718 216.119 53.3422 215.856 53.7273C215.598 54.1075 215.21 54.3975 214.693 54.5974C214.177 54.7923 213.533 54.8898 212.763 54.8898C212.193 54.8898 211.703 54.8533 211.293 54.7801C210.889 54.707 210.479 54.5852 210.065 54.4146V52.572C210.509 52.7719 210.984 52.9376 211.491 53.0692C212.003 53.1959 212.451 53.2593 212.836 53.2593C213.27 53.2593 213.579 53.1959 213.765 53.0692C213.955 52.9376 214.05 52.767 214.05 52.5574C214.05 52.4209 214.011 52.299 213.933 52.1918C213.86 52.0797 213.699 51.9554 213.45 51.8189C213.202 51.6776 212.812 51.4948 212.28 51.2705C211.769 51.0561 211.347 50.8391 211.016 50.6198C210.689 50.4004 210.445 50.1421 210.284 49.8448C210.128 49.5425 210.05 49.1599 210.05 48.6968C210.05 47.9413 210.343 47.3734 210.928 46.9932C211.518 46.6081 212.305 46.4156 213.289 46.4156C213.796 46.4156 214.279 46.4667 214.737 46.5691C215.2 46.6715 215.675 46.8348 216.163 47.059L215.49 48.6676C215.086 48.4921 214.703 48.3483 214.342 48.2362C213.986 48.1241 213.623 48.068 213.253 48.068C212.926 48.068 212.68 48.1119 212.514 48.1996C212.349 48.2874 212.266 48.4214 212.266 48.6018C212.266 48.7334 212.307 48.8504 212.39 48.9527C212.478 49.0551 212.644 49.1696 212.887 49.2964C213.136 49.4182 213.499 49.5767 213.977 49.7716C214.44 49.9617 214.842 50.1616 215.183 50.3712C215.524 50.5759 215.788 50.8318 215.973 51.1389C216.158 51.4411 216.251 51.8335 216.251 52.3161Z" fill="#FDAF0A"/>
<mask id="mask0_230_420" style="mask-type:luminance" maskUnits="userSpaceOnUse" x="0" y="0" width="58" height="59">
<path d="M57.466 0H0V58.0256H57.466V0Z" fill="white"/>
</mask>
<g mask="url(#mask0_230_420)">
<mask id="mask1_230_420" style="mask-type:luminance" maskUnits="userSpaceOnUse" x="-1" y="1" width="59" height="57">
<path d="M57.2538 1.0033H-0.00195312V57.2783H57.2538V1.0033Z" fill="white"/>
</mask>
<g mask="url(#mask1_230_420)">
<path d="M1.07719 9.51684C1.38793 9.92474 1.75641 10.2869 2.17145 10.5923C3.21472 11.3604 4.50484 11.7331 5.80508 11.6418C7.10532 11.5504 8.32846 11.0014 9.25002 10.0952C10.1715 9.18907 10.7297 7.98665 10.822 6.70867C10.9143 5.43069 10.5346 4.16283 9.75257 3.1378C9.44289 2.73013 9.07559 2.36796 8.66177 2.06231C7.61872 1.29144 6.32758 0.916571 5.02577 1.00669C3.72396 1.09678 2.49903 1.64583 1.57622 2.5528C0.653434 3.45976 0.0948247 4.6637 0.00313775 5.94319C-0.0885493 7.22267 0.29285 8.49167 1.07719 9.51684Z" fill="#FDAF0A"/>
<path d="M47.503 9.51603C47.8139 9.92336 48.1824 10.2852 48.5972 10.5904C49.6403 11.3564 50.9292 11.7273 52.2279 11.6353C53.5266 11.5435 54.7483 10.9948 55.669 10.0899C56.5898 9.18495 57.1481 7.9843 57.2415 6.70786C57.3349 5.43139 56.9576 4.16453 56.1783 3.13927C55.8678 2.73164 55.4996 2.3695 55.0851 2.06375C54.1484 1.3759 53.0105 1.00421 51.841 1.00421C50.6718 1.00421 49.5339 1.3759 48.5972 2.06375C48.1824 2.3695 47.8139 2.7316 47.503 3.13927C46.8032 4.05994 46.4248 5.17841 46.4248 6.32763C46.4248 7.47692 46.8032 8.59536 47.503 9.51603Z" fill="#FDAF0A"/>
<path d="M6.21741 16.2708H6.18891C5.67599 16.1976 5.15503 16.1976 4.64211 16.2708C3.74571 16.3979 2.89628 16.7446 2.17208 17.2791C1.75732 17.5849 1.38888 17.9469 1.07781 18.3545C0.53399 19.0664 0.181198 19.9013 0.0519473 20.7823C-0.0225241 21.2864 -0.0225241 21.7984 0.0519473 22.3026C0.20467 23.3447 0.668466 24.3189 1.38466 25.102C2.10085 25.8852 3.03727 26.4418 4.07544 26.7019C5.11358 26.9615 6.20684 26.9129 7.21689 26.5622C8.22698 26.2111 9.10842 25.5736 9.74978 24.7303C10.1765 24.1708 10.4867 23.5341 10.6627 22.8567C10.8387 22.1793 10.8771 21.4744 10.7756 20.7823V20.7554C10.6304 19.8523 10.7029 18.9282 10.9874 18.0576C11.2719 17.187 11.7604 16.3943 12.4136 15.7432L13.1534 15.0071L14.2477 13.9327L14.9909 13.2023C15.653 12.5602 16.4594 12.0801 17.3451 11.8005C18.2306 11.5209 19.1707 11.4495 20.0894 11.5925H20.1168C20.63 11.6657 21.1514 11.6657 21.6647 11.5925H21.692C22.6099 11.4503 23.5491 11.5218 24.4337 11.8012C25.3185 12.0805 26.1241 12.5601 26.786 13.2011L27.5292 13.9316L28.6234 15.006L29.3666 15.7364C30.0193 16.3878 30.5076 17.1806 30.792 18.0511C31.0765 18.9217 31.1493 19.8455 31.0045 20.7487C31.0041 20.7576 31.0041 20.7666 31.0045 20.7755C30.9301 21.2797 30.9301 21.7917 31.0045 22.2958C31.1911 23.5625 31.8356 24.7206 32.8201 25.5583C33.8046 26.396 35.063 26.857 36.3652 26.857C37.6673 26.857 38.9258 26.396 39.9103 25.5583C40.8951 24.7206 41.5397 23.5625 41.7261 22.2958C41.7991 21.7916 41.7991 21.2798 41.7261 20.7755C41.5966 19.8946 41.2438 19.0597 40.7001 18.3478C40.3892 17.9402 40.0207 17.5782 39.6059 17.2724C38.8822 16.7377 38.0331 16.3909 37.1369 16.2641C36.6236 16.1909 36.1023 16.1909 35.589 16.2641H35.5617C34.6431 16.4069 33.7032 16.3356 32.8176 16.0562C31.932 15.7768 31.1257 15.2969 30.4632 14.6553L28.6279 12.8561L27.8848 12.1257C27.2319 11.4747 26.7436 10.6821 26.4591 9.81177C26.1746 8.94139 26.1018 8.01757 26.2469 7.11456V7.08655C26.4508 5.68893 26.0818 4.26894 25.221 3.13861C24.9099 2.73097 24.5415 2.36884 24.1268 2.06312C23.403 1.52861 22.5539 1.18185 21.6578 1.05484C21.1446 0.981638 20.6232 0.981638 20.1099 1.05484C19.2135 1.18189 18.364 1.52861 17.6398 2.06312C17.2251 2.36884 16.8566 2.73097 16.5456 3.13861C16.0017 3.85041 15.6489 4.68528 15.5197 5.56631C15.4452 6.0704 15.4452 6.58246 15.5197 7.08655C15.5192 7.0959 15.5192 7.10525 15.5197 7.11456C15.6644 8.01754 15.5917 8.94132 15.3072 9.81164C15.0227 10.6819 14.5345 11.4745 13.8817 12.1257L11.3159 14.662C10.6534 15.3035 9.847 15.7834 8.96147 16.0628C8.07594 16.3422 7.13604 16.4135 6.21741 16.2708Z" fill="#FDAF0A"/>
<path d="M32.0303 9.51761C32.3411 9.92551 32.7095 10.2877 33.1245 10.5931C33.6941 11.0124 34.3421 11.3173 35.0314 11.4903C35.7209 11.6633 36.4382 11.701 37.1424 11.6014H37.17C38.0887 11.4585 39.0288 11.5298 39.9144 11.8095C40.7997 12.0891 41.6062 12.5693 42.2685 13.2113L43.0116 13.9417L44.1058 15.0161L44.8489 15.7465C45.5017 16.3979 45.9902 17.1907 46.2745 18.0612C46.5588 18.9317 46.6317 19.8556 46.4869 20.7587C46.4865 20.7677 46.4865 20.7767 46.4869 20.7856C46.4125 21.2897 46.4125 21.8018 46.4869 22.3059C46.4862 22.3152 46.4862 22.3246 46.4869 22.3339C46.629 23.2348 46.5547 24.1558 46.2697 25.0233C45.9851 25.891 45.4976 26.6812 44.8469 27.3304L42.2661 29.8713C41.6038 30.5129 40.7973 30.9927 39.9117 31.2724C39.0264 31.5518 38.0863 31.6235 37.1676 31.4812H37.1404C36.627 31.4081 36.1055 31.4081 35.5924 31.4812C34.6959 31.6081 33.8464 31.9549 33.1222 32.4896C32.7075 32.7952 32.339 33.1573 32.0281 33.5651C31.4843 34.2767 31.1313 35.1116 31.0022 35.9927C30.9277 36.4973 30.9277 37.0095 31.0022 37.5141C31.1886 38.7805 31.8332 39.9387 32.8177 40.7766C33.8022 41.6142 35.0607 42.0752 36.3628 42.0752C37.665 42.0752 38.9235 41.6142 39.9079 40.7766C40.8924 39.9387 41.537 38.7805 41.7238 37.5141C41.7967 37.0095 41.7967 36.4973 41.7238 35.9927C41.7231 35.9836 41.7231 35.9746 41.7238 35.9659C41.5786 35.063 41.6512 34.139 41.9358 33.2686C42.2201 32.3981 42.7086 31.6055 43.3617 30.9545L44.1048 30.2241L45.199 29.1487L45.9421 28.4183C46.6045 27.7764 47.4106 27.2959 48.2962 27.0165C49.1818 26.7368 50.122 26.6657 51.0406 26.8085H51.0679C52.4897 27.0102 53.935 26.6483 55.0855 25.8031C56.2356 24.9576 56.9975 23.6977 57.2027 22.3003C57.2756 21.7961 57.2756 21.2842 57.2027 20.78C57.0735 19.899 56.7207 19.0642 56.177 18.3524C55.8657 17.9447 55.4973 17.5826 55.0828 17.2768C54.3591 16.7421 53.5099 16.3954 52.6138 16.2685C52.1004 16.1953 51.5789 16.1953 51.0659 16.2685H51.0382C50.1192 16.4121 49.1791 16.3416 48.2928 16.0625C47.4065 15.7835 46.5993 15.3038 45.9363 14.6621L44.1038 12.8561L43.3603 12.1257C42.7069 11.4749 42.2181 10.6825 41.9327 9.8121C41.6478 8.94179 41.5745 8.01781 41.719 7.11456C41.7183 7.10521 41.7183 7.09587 41.719 7.08655C41.792 6.58233 41.792 6.0705 41.719 5.56628C41.5898 4.68528 41.237 3.85041 40.6933 3.13857C40.3821 2.73094 40.0136 2.36884 39.5991 2.06309C38.8751 1.52844 38.026 1.18165 37.1301 1.05484C36.6168 0.981638 36.0952 0.981638 35.5822 1.05484C34.6857 1.18185 33.8362 1.52861 33.112 2.06309C32.6973 2.36884 32.3288 2.73094 32.0178 3.13857C31.474 3.85038 31.1211 4.68528 30.9919 5.56628C30.9174 6.0704 30.9174 6.58243 30.9919 7.08655C31.1243 7.9699 31.4815 8.8061 32.0303 9.51761Z" fill="#FDAF0A"/>
<path d="M56.1771 33.5562C55.8659 33.1485 55.4974 32.7866 55.0829 32.4807C54.3592 31.946 53.5097 31.5993 52.6139 31.4726C52.1002 31.3999 51.5783 31.4006 51.0646 31.4746C50.1685 31.6016 49.319 31.9484 48.5946 32.4831C48.1798 32.7886 47.8116 33.1508 47.5004 33.5585C46.9571 34.2705 46.6042 35.1054 46.4747 35.9862C46.4001 36.4907 46.4001 37.003 46.4747 37.5076C46.474 37.5166 46.474 37.5253 46.4747 37.5344C46.6192 38.4373 46.5466 39.3613 46.262 40.2314C45.9777 41.1018 45.4892 41.8945 44.8368 42.5454L42.2652 45.0796C41.6026 45.7212 40.7964 46.2013 39.9108 46.4807C39.0252 46.7605 38.0854 46.8318 37.1667 46.6898H37.1391C36.6261 46.6164 36.1046 46.6164 35.5912 46.6898H35.5639C34.6453 46.8318 33.7053 46.7605 32.8199 46.4807C31.9343 46.2013 31.1279 45.7212 30.4654 45.0796L28.6279 43.2738L27.8848 42.5434C27.2319 41.8921 26.7434 41.0998 26.4591 40.2294C26.1745 39.3589 26.1018 38.4353 26.2468 37.5324V37.5052C26.451 36.1075 26.082 34.6869 25.221 33.5562C24.9099 33.1485 24.5415 32.7866 24.1267 32.4807C23.4029 31.9464 22.5538 31.5996 21.6578 31.4726C21.1446 31.3993 20.6232 31.3993 20.1099 31.4726C19.2135 31.5996 18.364 31.9464 17.6398 32.4807C17.2251 32.7866 16.8566 33.1485 16.5455 33.5562C16.0017 34.2681 15.6489 35.103 15.5197 35.9838C15.4452 36.4884 15.4452 37.0007 15.5197 37.5052C15.6212 38.1974 15.8605 38.8628 16.2237 39.4638C16.587 40.0649 17.0673 40.5895 17.6369 41.008C18.2067 41.4268 18.8547 41.7306 19.5439 41.9028C20.2333 42.0754 20.9504 42.1126 21.6544 42.0124H21.6818C22.601 41.8687 23.542 41.939 24.4285 42.2181C25.3151 42.4969 26.1226 42.977 26.786 43.6189L27.5292 44.3492L28.6234 45.4247L29.3666 46.1554C30.0194 46.8064 30.5076 47.5991 30.7921 48.4691C31.0766 49.3395 31.1493 50.2632 31.0045 51.1665C31.0041 51.1752 31.0041 51.1842 31.0045 51.1933C30.93 51.6978 30.93 52.2101 31.0045 52.7147C31.1716 53.8521 31.7087 54.9054 32.5354 55.7182C33.3621 56.5307 34.4343 57.0583 35.5912 57.2225C36.1046 57.2942 36.6258 57.2942 37.1391 57.2225C38.2961 57.058 39.3678 56.53 40.1944 55.7175C41.021 54.9051 41.5582 53.8517 41.726 52.7147C41.7989 52.2101 41.7989 51.6978 41.726 51.1933C41.7253 51.1842 41.7253 51.1752 41.726 51.1665C41.5797 50.2629 41.6513 49.3385 41.9349 48.4675C42.2185 47.596 42.7063 46.8027 43.3594 46.1507L44.1026 45.4203L45.1968 44.3449L45.9354 43.6189C46.5978 42.9759 47.405 42.4948 48.2912 42.2144C49.1779 41.9343 50.119 41.8626 51.0384 42.0057H51.066C52.4874 42.207 53.9321 41.8452 55.0825 41.0003C56.2327 40.155 56.9949 38.8956 57.2007 37.4985C57.2737 36.994 57.2737 36.4817 57.2007 35.9771C57.0709 35.0987 56.7191 34.2665 56.1771 33.5562Z" fill="#FDAF0A"/>
<path d="M9.75344 48.765C9.32751 48.2052 8.7935 47.7331 8.18193 47.3763C7.57033 47.0192 6.89314 46.7843 6.18913 46.6845C5.67621 46.6114 5.15525 46.6114 4.64233 46.6845C3.7461 46.8121 2.89677 47.1589 2.17229 47.6929C1.75753 47.9985 1.38909 48.3606 1.07803 48.7684C0.378159 49.689 0 50.8074 0 51.9569C0 53.106 0.378159 54.2244 1.07803 55.145C1.38909 55.5528 1.75753 55.9149 2.17229 56.2205C2.89677 56.7545 3.7461 57.1013 4.64233 57.2289C5.15525 57.302 5.67621 57.302 6.18913 57.2289C7.1187 57.0966 7.99738 56.7291 8.73889 56.1625C9.4804 55.596 10.0593 54.8495 10.4187 53.9965C10.7782 53.1439 10.9058 52.2138 10.7892 51.2975C10.6726 50.3816 10.3156 49.5111 9.75344 48.7717V48.765Z" fill="#FDAF0A"/>
<path d="M25.2283 48.7663C24.9172 48.3585 24.5488 47.9964 24.134 47.6908C23.4102 47.1561 22.5611 46.8093 21.6652 46.6824C21.1518 46.6093 20.6305 46.6093 20.1173 46.6824H20.0899C19.1711 46.8247 18.2312 46.7534 17.3457 46.4736C16.4603 46.1939 15.6539 45.7141 14.9912 45.0725L13.1539 43.2744L12.4107 42.544C11.7575 41.8931 11.269 41.1007 10.9845 40.23C10.7 39.3596 10.6275 38.4359 10.7727 37.533V37.5058C10.8472 37.0016 10.8472 36.489 10.7727 35.9845V35.9577C10.6274 35.0547 10.6999 34.1307 10.9844 33.2603C11.2689 32.3899 11.7575 31.5976 12.4107 30.9466L13.1539 30.2162L14.2481 29.1408L14.9912 28.4104C15.6535 27.7681 16.4599 27.288 17.3454 27.0083C18.2311 26.7289 19.1711 26.6575 20.0899 26.8002H20.1173C21.1772 26.9503 22.2589 26.7882 23.2252 26.3342C24.1915 25.8803 24.9992 25.1551 25.5462 24.25C26.0933 23.345 26.355 22.3009 26.2983 21.2498C26.2419 20.1986 25.8694 19.1874 25.2283 18.3442C24.9172 17.9366 24.5488 17.5746 24.134 17.2688C23.4102 16.7343 22.5611 16.3876 21.6652 16.2605C21.1518 16.1873 20.6305 16.1873 20.1173 16.2605C19.2208 16.3876 18.3713 16.7343 17.6472 17.2688C17.2324 17.5746 16.864 17.9366 16.5529 18.3442C16.0091 19.0561 15.6563 19.891 15.5271 20.772C15.4526 21.2761 15.4526 21.7881 15.5271 22.2922C15.5265 22.3016 15.5265 22.3109 15.5271 22.3202C15.6726 23.2225 15.6009 24.1456 15.3179 25.0157C15.0348 25.8857 14.5481 26.6786 13.8971 27.3303L11.3164 29.8711C10.6539 30.5127 9.84745 30.9925 8.96199 31.2719C8.07649 31.5517 7.13663 31.6234 6.2179 31.481H6.1894C5.67648 31.4079 5.15552 31.4079 4.6426 31.481C3.74623 31.6079 2.89677 31.9547 2.17255 32.4891C1.75781 32.795 1.38937 33.1571 1.0783 33.5649C0.534478 34.2765 0.181687 35.1114 0.0524346 35.9925C-0.0220355 36.4971 -0.0220355 37.0093 0.0524346 37.5139C0.154749 38.2054 0.394654 38.8701 0.758455 39.4708C1.12226 40.0708 1.60282 40.5952 2.1727 41.0129C2.74259 41.4307 3.39064 41.7339 4.07981 41.9055C4.769 42.0773 5.48586 42.1135 6.1894 42.013H6.2179C7.13636 41.87 8.07612 41.941 8.96165 42.2201C9.84718 42.4988 10.6537 42.9782 11.3164 43.6195L12.0596 44.3499L13.1539 45.4253L13.8971 46.156C14.5498 46.807 15.0381 47.5997 15.3226 48.4697C15.607 49.3402 15.6799 50.2642 15.535 51.1671C15.5344 51.1761 15.5344 51.1848 15.535 51.1939C15.4606 51.6985 15.4606 52.2107 15.535 52.7153C15.7021 53.8527 16.2392 54.9064 17.0659 55.7188C17.8927 56.5313 18.9647 57.059 20.1218 57.2235C20.6352 57.2952 21.1563 57.2952 21.6698 57.2235C22.5991 57.0911 23.4778 56.7233 24.219 56.1567C24.9604 55.5898 25.5392 54.8437 25.8986 53.9907C26.2578 53.1381 26.3854 52.2077 26.2687 51.2921C26.152 50.3761 25.7951 49.5057 25.2329 48.7663H25.2283Z" fill="#FDAF0A"/>
<path d="M56.1783 48.765C55.7526 48.2052 55.2187 47.7335 54.6072 47.3763C53.996 47.0195 53.319 46.7843 52.6151 46.6845C52.1018 46.6114 51.5806 46.6114 51.0672 46.6845C50.171 46.8121 49.3216 47.1589 48.5972 47.6929C48.1824 47.9985 47.8139 48.3606 47.503 48.7684C46.8032 49.689 46.4248 50.8074 46.4248 51.9569C46.4248 53.106 46.8032 54.2244 47.503 55.145C47.8139 55.5528 48.1824 55.9149 48.5972 56.2205C49.3216 56.7545 50.171 57.1013 51.0672 57.2289C51.5806 57.302 52.1018 57.302 52.6151 57.2289C53.5447 57.0966 54.4231 56.7291 55.1645 56.1622C55.906 55.5953 56.4848 54.8492 56.844 53.9962C57.2033 53.1432 57.3308 52.2132 57.2142 51.2975C57.0977 50.3816 56.7404 49.5111 56.1783 48.7717V48.765Z" fill="#FDAF0A"/>
</g>
</g>
</svg>
